<mxfile host="app.diagrams.net" modified="2023-07-18T06:11:56.894Z" agent="Mozilla/5.0 (Windows NT 10.0; Win64; x64) AppleWebKit/537.36 (KHTML, like Gecko) Chrome/114.0.0.0 Safari/537.36" etag="papElGfcKHLAryPpohD7" version="21.6.2" type="github">
  <diagram name="第 1 页" id="5llI7hip83dVb_qKVo8m">
    <mxGraphModel dx="1434" dy="764" grid="1" gridSize="10" guides="1" tooltips="1" connect="1" arrows="1" fold="1" page="1" pageScale="1" pageWidth="827" pageHeight="1169" math="0" shadow="0">
      <root>
        <mxCell id="0" />
        <mxCell id="1" parent="0" />
        <mxCell id="trf79LLRnFaGW3UVssNV-1" value="Home Screen" style="swimlane;fontStyle=0;childLayout=stackLayout;horizontal=1;startSize=30;horizontalStack=0;resizeParent=1;resizeParentMax=0;resizeLast=0;collapsible=1;marginBottom=0;whiteSpace=wrap;html=1;" parent="1" vertex="1">
          <mxGeometry x="80" y="30" width="590" height="120" as="geometry" />
        </mxCell>
        <mxCell id="trf79LLRnFaGW3UVssNV-2" value="Start button" style="text;strokeColor=none;fillColor=none;align=left;verticalAlign=middle;spacingLeft=4;spacingRight=4;overflow=hidden;points=[[0,0.5],[1,0.5]];portConstraint=eastwest;rotatable=0;whiteSpace=wrap;html=1;" parent="trf79LLRnFaGW3UVssNV-1" vertex="1">
          <mxGeometry y="30" width="590" height="30" as="geometry" />
        </mxCell>
        <mxCell id="trf79LLRnFaGW3UVssNV-3" value="顯示可用充電槍" style="text;strokeColor=none;fillColor=none;align=left;verticalAlign=middle;spacingLeft=4;spacingRight=4;overflow=hidden;points=[[0,0.5],[1,0.5]];portConstraint=eastwest;rotatable=0;whiteSpace=wrap;html=1;" parent="trf79LLRnFaGW3UVssNV-1" vertex="1">
          <mxGeometry y="60" width="590" height="30" as="geometry" />
        </mxCell>
        <mxCell id="trf79LLRnFaGW3UVssNV-11" value="Logo" style="text;strokeColor=none;fillColor=none;align=left;verticalAlign=middle;spacingLeft=4;spacingRight=4;overflow=hidden;points=[[0,0.5],[1,0.5]];portConstraint=eastwest;rotatable=0;whiteSpace=wrap;html=1;" parent="trf79LLRnFaGW3UVssNV-1" vertex="1">
          <mxGeometry y="90" width="590" height="30" as="geometry" />
        </mxCell>
        <mxCell id="trf79LLRnFaGW3UVssNV-5" value="Payment and Authentication View:" style="swimlane;fontStyle=0;childLayout=stackLayout;horizontal=1;startSize=30;horizontalStack=0;resizeParent=1;resizeParentMax=0;resizeLast=0;collapsible=1;marginBottom=0;whiteSpace=wrap;html=1;" parent="1" vertex="1">
          <mxGeometry x="80" y="470" width="580" height="120" as="geometry" />
        </mxCell>
        <mxCell id="trf79LLRnFaGW3UVssNV-6" value="Payment Methods: 顯示可接受的付費方式" style="text;strokeColor=none;fillColor=none;align=left;verticalAlign=middle;spacingLeft=4;spacingRight=4;overflow=hidden;points=[[0,0.5],[1,0.5]];portConstraint=eastwest;rotatable=0;whiteSpace=wrap;html=1;" parent="trf79LLRnFaGW3UVssNV-5" vertex="1">
          <mxGeometry y="30" width="580" height="30" as="geometry" />
        </mxCell>
        <mxCell id="trf79LLRnFaGW3UVssNV-13" value="show pricing details: 顯示總金額消費 總充電時間 功率 和電量" style="text;strokeColor=none;fillColor=none;align=left;verticalAlign=middle;spacingLeft=4;spacingRight=4;overflow=hidden;points=[[0,0.5],[1,0.5]];portConstraint=eastwest;rotatable=0;whiteSpace=wrap;html=1;" parent="trf79LLRnFaGW3UVssNV-5" vertex="1">
          <mxGeometry y="60" width="580" height="30" as="geometry" />
        </mxCell>
        <mxCell id="trf79LLRnFaGW3UVssNV-14" value="Payment Confirmation 確認付費" style="text;strokeColor=none;fillColor=none;align=left;verticalAlign=middle;spacingLeft=4;spacingRight=4;overflow=hidden;points=[[0,0.5],[1,0.5]];portConstraint=eastwest;rotatable=0;whiteSpace=wrap;html=1;" parent="trf79LLRnFaGW3UVssNV-5" vertex="1">
          <mxGeometry y="90" width="580" height="30" as="geometry" />
        </mxCell>
        <mxCell id="trf79LLRnFaGW3UVssNV-15" value="Start Charging&amp;nbsp; View:" style="swimlane;fontStyle=0;childLayout=stackLayout;horizontal=1;startSize=30;horizontalStack=0;resizeParent=1;resizeParentMax=0;resizeLast=0;collapsible=1;marginBottom=0;whiteSpace=wrap;html=1;" parent="1" vertex="1">
          <mxGeometry x="80" y="220" width="580" height="180" as="geometry" />
        </mxCell>
        <mxCell id="trf79LLRnFaGW3UVssNV-16" value="Charging Power: 顯示充電電量&amp;nbsp; kW and 和充電%數" style="text;strokeColor=none;fillColor=none;align=left;verticalAlign=middle;spacingLeft=4;spacingRight=4;overflow=hidden;points=[[0,0.5],[1,0.5]];portConstraint=eastwest;rotatable=0;whiteSpace=wrap;html=1;" parent="trf79LLRnFaGW3UVssNV-15" vertex="1">
          <mxGeometry y="30" width="580" height="30" as="geometry" />
        </mxCell>
        <mxCell id="UigElkaD9CPM_pQSmXkz-2" value="Charging Progress: 顯示充電progress bar 顯示當前充電%數." style="text;strokeColor=none;fillColor=none;align=left;verticalAlign=middle;spacingLeft=4;spacingRight=4;overflow=hidden;points=[[0,0.5],[1,0.5]];portConstraint=eastwest;rotatable=0;whiteSpace=wrap;html=1;" vertex="1" parent="trf79LLRnFaGW3UVssNV-15">
          <mxGeometry y="60" width="580" height="30" as="geometry" />
        </mxCell>
        <mxCell id="trf79LLRnFaGW3UVssNV-17" value="Charging Time: 顯示已充電時間 和估計多久充滿&amp;nbsp;" style="text;strokeColor=none;fillColor=none;align=left;verticalAlign=middle;spacingLeft=4;spacingRight=4;overflow=hidden;points=[[0,0.5],[1,0.5]];portConstraint=eastwest;rotatable=0;whiteSpace=wrap;html=1;" parent="trf79LLRnFaGW3UVssNV-15" vertex="1">
          <mxGeometry y="90" width="580" height="30" as="geometry" />
        </mxCell>
        <mxCell id="trf79LLRnFaGW3UVssNV-18" value="Cost: 顯示應付金額對應已充電時間" style="text;strokeColor=none;fillColor=none;align=left;verticalAlign=middle;spacingLeft=4;spacingRight=4;overflow=hidden;points=[[0,0.5],[1,0.5]];portConstraint=eastwest;rotatable=0;whiteSpace=wrap;html=1;" parent="trf79LLRnFaGW3UVssNV-15" vertex="1">
          <mxGeometry y="120" width="580" height="30" as="geometry" />
        </mxCell>
        <mxCell id="UigElkaD9CPM_pQSmXkz-1" value="Stop Charging Button: 暫停充電按鈕" style="text;strokeColor=none;fillColor=none;align=left;verticalAlign=middle;spacingLeft=4;spacingRight=4;overflow=hidden;points=[[0,0.5],[1,0.5]];portConstraint=eastwest;rotatable=0;whiteSpace=wrap;html=1;" vertex="1" parent="trf79LLRnFaGW3UVssNV-15">
          <mxGeometry y="150" width="580" height="30" as="geometry" />
        </mxCell>
      </root>
    </mxGraphModel>
  </diagram>
</mxfile>
